<?xml version="1.0" encoding="utf-8"?>
<!-- Generator: Adobe Illustrator 24.0.0, SVG Export Plug-In . SVG Version: 6.00 Build 0)  -->
<svg version="1.1" id="Layer_1" xmlns="http://www.w3.org/2000/svg" xmlns:xlink="http://www.w3.org/1999/xlink" x="0px" y="0px"
	 viewBox="0 0 800 800" style="enable-background:new 0 0 800 800;" xml:space="preserve">
<style type="text/css">
	.st0{fill:crimson;stroke:crimson;stroke-width:28;stroke-miterlimit:10;}
	.st1{fill:none;stroke:crimson;stroke-width:11;stroke-miterlimit:10;}
</style>
<line class="st0" x1="579" y1="622" x2="667" y2="712"/>
<path d="M475,352v151.39c-7.32,19.78-20,36.67-36.11,48.61c-14.61,10.84-32.05,17.62-50.89,18.8V353h-16v217.47
	c-17.31-1.84-33.32-8.4-46.89-18.47c-16.87-12.5-29.98-30.43-37.11-51.42V352h35.71c-2.4-6.55-3.71-13.62-3.71-21
	c0-0.34,0-0.67,0.01-1c0.03-2.03,0.16-4.03,0.39-6c3.47-30.39,29.28-54,60.6-54s57.13,23.61,60.6,54c0.27,2.3,0.4,4.63,0.4,7
	c0,2.66-0.17,5.27-0.5,7.84c-0.59,4.56-1.68,8.97-3.21,13.16H475z"/>
<line class="st1" x1="424.25" y1="297.59" x2="470.75" y2="247.41"/>
<line class="st1" x1="340.75" y1="299.59" x2="294.25" y2="249.41"/>
<line class="st1" x1="463.5" y1="393.5" x2="543.5" y2="393.5"/>
<line class="st1" x1="463" y1="439.5" x2="588.5" y2="439.5"/>
<line class="st1" x1="463" y1="489.5" x2="543" y2="489.5"/>
<line class="st1" x1="538.62" y1="333.5" x2="538.62" y2="399.04"/>
<line class="st1" x1="537.62" y1="484.5" x2="537.62" y2="550.04"/>
<line class="st1" x1="304" y1="392.5" x2="224" y2="392.5"/>
<line class="st1" x1="304.5" y1="438.5" x2="179" y2="438.5"/>
<line class="st1" x1="304.5" y1="488.5" x2="224.5" y2="488.5"/>
<line class="st1" x1="228.88" y1="332.5" x2="228.88" y2="398.04"/>
<line class="st1" x1="229.88" y1="483.5" x2="229.88" y2="549.04"/>
<circle class="st0" cx="394" cy="419" r="271"/>
</svg>
